<svg xmlns="http://www.w3.org/2000/svg" xmlns:xlink="http://www.w3.org/1999/xlink" width="414" zoomAndPan="magnify" viewBox="0 0 310.5 671.999985" height="896" preserveAspectRatio="xMidYMid meet" version="1.0"><defs><g/><clipPath id="60b69f73e9"><path d="M 0 0.539062 L 310 0.539062 L 310 671.457031 L 0 671.457031 Z M 0 0.539062 " clip-rule="nonzero"/></clipPath><radialGradient gradientTransform="matrix(1, 0, 0, 1, 0, 0.540185)" gradientUnits="userSpaceOnUse" r="739.076338" cx="0" id="2fcf34a1c9" cy="0" fx="0" fy="0"><stop stop-opacity="1" stop-color="rgb(23.79303%, 3.15094%, 11.81488%)" offset="0"/><stop stop-opacity="1" stop-color="rgb(23.478699%, 3.181458%, 11.952209%)" offset="0.0078125"/><stop stop-opacity="1" stop-color="rgb(23.101807%, 3.219604%, 12.117004%)" offset="0.0195312"/><stop stop-opacity="1" stop-color="rgb(22.724915%, 3.256226%, 12.283325%)" offset="0.03125"/><stop stop-opacity="1" stop-color="rgb(22.348022%, 3.292847%, 12.44812%)" offset="0.0429688"/><stop stop-opacity="1" stop-color="rgb(21.97113%, 3.329468%, 12.614441%)" offset="0.0546875"/><stop stop-opacity="1" stop-color="rgb(21.594238%, 3.366089%, 12.779236%)" offset="0.0664062"/><stop stop-opacity="1" stop-color="rgb(21.217346%, 3.40271%, 12.944031%)" offset="0.078125"/><stop stop-opacity="1" stop-color="rgb(20.840454%, 3.439331%, 13.110352%)" offset="0.0898438"/><stop stop-opacity="1" stop-color="rgb(20.463562%, 3.475952%, 13.275146%)" offset="0.101562"/><stop stop-opacity="1" stop-color="rgb(20.08667%, 3.512573%, 13.441467%)" offset="0.113281"/><stop stop-opacity="1" stop-color="rgb(19.709778%, 3.55072%, 13.606262%)" offset="0.125"/><stop stop-opacity="1" stop-color="rgb(19.332886%, 3.587341%, 13.772583%)" offset="0.136719"/><stop stop-opacity="1" stop-color="rgb(18.955994%, 3.623962%, 13.937378%)" offset="0.148438"/><stop stop-opacity="1" stop-color="rgb(18.579102%, 3.660583%, 14.103699%)" offset="0.160156"/><stop stop-opacity="1" stop-color="rgb(18.202209%, 3.697205%, 14.268494%)" offset="0.171875"/><stop stop-opacity="1" stop-color="rgb(17.825317%, 3.733826%, 14.433289%)" offset="0.183594"/><stop stop-opacity="1" stop-color="rgb(17.448425%, 3.770447%, 14.599609%)" offset="0.195312"/><stop stop-opacity="1" stop-color="rgb(17.071533%, 3.807068%, 14.764404%)" offset="0.207031"/><stop stop-opacity="1" stop-color="rgb(16.694641%, 3.843689%, 14.930725%)" offset="0.21875"/><stop stop-opacity="1" stop-color="rgb(16.317749%, 3.881836%, 15.09552%)" offset="0.230469"/><stop stop-opacity="1" stop-color="rgb(15.940857%, 3.918457%, 15.261841%)" offset="0.242188"/><stop stop-opacity="1" stop-color="rgb(15.628052%, 3.948975%, 15.39917%)" offset="0.253906"/><stop stop-opacity="1" stop-color="rgb(15.376282%, 3.973389%, 15.509033%)" offset="0.261719"/><stop stop-opacity="1" stop-color="rgb(15.124512%, 3.997803%, 15.620422%)" offset="0.269531"/><stop stop-opacity="1" stop-color="rgb(14.874268%, 4.022217%, 15.730286%)" offset="0.277344"/><stop stop-opacity="1" stop-color="rgb(14.622498%, 4.046631%, 15.840149%)" offset="0.285156"/><stop stop-opacity="1" stop-color="rgb(14.370728%, 4.071045%, 15.951538%)" offset="0.292969"/><stop stop-opacity="1" stop-color="rgb(14.120483%, 4.095459%, 16.061401%)" offset="0.300781"/><stop stop-opacity="1" stop-color="rgb(13.868713%, 4.119873%, 16.171265%)" offset="0.308594"/><stop stop-opacity="1" stop-color="rgb(13.616943%, 4.144287%, 16.281128%)" offset="0.316406"/><stop stop-opacity="1" stop-color="rgb(13.366699%, 4.170227%, 16.392517%)" offset="0.324219"/><stop stop-opacity="1" stop-color="rgb(13.114929%, 4.194641%, 16.50238%)" offset="0.332031"/><stop stop-opacity="1" stop-color="rgb(12.863159%, 4.219055%, 16.612244%)" offset="0.339844"/><stop stop-opacity="1" stop-color="rgb(12.612915%, 4.243469%, 16.723633%)" offset="0.347656"/><stop stop-opacity="1" stop-color="rgb(12.361145%, 4.267883%, 16.833496%)" offset="0.355469"/><stop stop-opacity="1" stop-color="rgb(12.109375%, 4.292297%, 16.943359%)" offset="0.363281"/><stop stop-opacity="1" stop-color="rgb(11.859131%, 4.316711%, 17.054749%)" offset="0.371094"/><stop stop-opacity="1" stop-color="rgb(11.607361%, 4.341125%, 17.164612%)" offset="0.378906"/><stop stop-opacity="1" stop-color="rgb(11.355591%, 4.36554%, 17.274475%)" offset="0.386719"/><stop stop-opacity="1" stop-color="rgb(11.105347%, 4.389954%, 17.384338%)" offset="0.394531"/><stop stop-opacity="1" stop-color="rgb(10.853577%, 4.414368%, 17.495728%)" offset="0.402344"/><stop stop-opacity="1" stop-color="rgb(10.601807%, 4.438782%, 17.605591%)" offset="0.410156"/><stop stop-opacity="1" stop-color="rgb(10.351562%, 4.463196%, 17.715454%)" offset="0.417969"/><stop stop-opacity="1" stop-color="rgb(10.099792%, 4.489136%, 17.826843%)" offset="0.425781"/><stop stop-opacity="1" stop-color="rgb(9.848022%, 4.51355%, 17.936707%)" offset="0.433594"/><stop stop-opacity="1" stop-color="rgb(9.597778%, 4.537964%, 18.04657%)" offset="0.441406"/><stop stop-opacity="1" stop-color="rgb(9.346008%, 4.562378%, 18.156433%)" offset="0.449219"/><stop stop-opacity="1" stop-color="rgb(9.094238%, 4.586792%, 18.267822%)" offset="0.457031"/><stop stop-opacity="1" stop-color="rgb(8.843994%, 4.611206%, 18.377686%)" offset="0.464844"/><stop stop-opacity="1" stop-color="rgb(8.529663%, 4.641724%, 18.515015%)" offset="0.472656"/><stop stop-opacity="1" stop-color="rgb(8.152771%, 4.678345%, 18.681335%)" offset="0.484375"/><stop stop-opacity="1" stop-color="rgb(8.039856%, 4.702759%, 18.782043%)" offset="0.496094"/><stop stop-opacity="1" stop-color="rgb(8.251953%, 4.708862%, 18.791199%)" offset="0.511719"/><stop stop-opacity="1" stop-color="rgb(8.528137%, 4.708862%, 18.772888%)" offset="0.523438"/><stop stop-opacity="1" stop-color="rgb(8.804321%, 4.708862%, 18.754578%)" offset="0.535156"/><stop stop-opacity="1" stop-color="rgb(9.080505%, 4.708862%, 18.736267%)" offset="0.546875"/><stop stop-opacity="1" stop-color="rgb(9.355164%, 4.708862%, 18.717957%)" offset="0.558594"/><stop stop-opacity="1" stop-color="rgb(9.631348%, 4.708862%, 18.699646%)" offset="0.570312"/><stop stop-opacity="1" stop-color="rgb(9.907532%, 4.708862%, 18.682861%)" offset="0.582031"/><stop stop-opacity="1" stop-color="rgb(10.183716%, 4.708862%, 18.664551%)" offset="0.59375"/><stop stop-opacity="1" stop-color="rgb(10.4599%, 4.708862%, 18.64624%)" offset="0.605469"/><stop stop-opacity="1" stop-color="rgb(10.734558%, 4.708862%, 18.62793%)" offset="0.617188"/><stop stop-opacity="1" stop-color="rgb(10.964966%, 4.708862%, 18.612671%)" offset="0.628906"/><stop stop-opacity="1" stop-color="rgb(11.149597%, 4.708862%, 18.600464%)" offset="0.636719"/><stop stop-opacity="1" stop-color="rgb(11.332703%, 4.708862%, 18.588257%)" offset="0.644531"/><stop stop-opacity="1" stop-color="rgb(11.517334%, 4.708862%, 18.57605%)" offset="0.652344"/><stop stop-opacity="1" stop-color="rgb(11.700439%, 4.708862%, 18.563843%)" offset="0.660156"/><stop stop-opacity="1" stop-color="rgb(11.885071%, 4.708862%, 18.551636%)" offset="0.667969"/><stop stop-opacity="1" stop-color="rgb(12.068176%, 4.708862%, 18.539429%)" offset="0.675781"/><stop stop-opacity="1" stop-color="rgb(12.252808%, 4.708862%, 18.527222%)" offset="0.683594"/><stop stop-opacity="1" stop-color="rgb(12.527466%, 4.708862%, 18.508911%)" offset="0.691406"/><stop stop-opacity="1" stop-color="rgb(12.895203%, 4.708862%, 18.484497%)" offset="0.707031"/><stop stop-opacity="1" stop-color="rgb(13.264465%, 4.708862%, 18.460083%)" offset="0.722656"/><stop stop-opacity="1" stop-color="rgb(13.632202%, 4.708862%, 18.435669%)" offset="0.738281"/><stop stop-opacity="1" stop-color="rgb(13.954163%, 4.708862%, 18.414307%)" offset="0.753906"/><stop stop-opacity="1" stop-color="rgb(14.228821%, 4.708862%, 18.395996%)" offset="0.765625"/><stop stop-opacity="1" stop-color="rgb(14.505005%, 4.708862%, 18.377686%)" offset="0.777344"/><stop stop-opacity="1" stop-color="rgb(14.781189%, 4.708862%, 18.359375%)" offset="0.789062"/><stop stop-opacity="1" stop-color="rgb(15.057373%, 4.708862%, 18.341064%)" offset="0.800781"/><stop stop-opacity="1" stop-color="rgb(15.333557%, 4.708862%, 18.322754%)" offset="0.8125"/><stop stop-opacity="1" stop-color="rgb(15.562439%, 4.708862%, 18.307495%)" offset="0.824219"/><stop stop-opacity="1" stop-color="rgb(15.74707%, 4.708862%, 18.295288%)" offset="0.832031"/><stop stop-opacity="1" stop-color="rgb(15.930176%, 4.708862%, 18.283081%)" offset="0.839844"/><stop stop-opacity="1" stop-color="rgb(16.20636%, 4.708862%, 18.264771%)" offset="0.847656"/><stop stop-opacity="1" stop-color="rgb(16.574097%, 4.708862%, 18.240356%)" offset="0.863281"/><stop stop-opacity="1" stop-color="rgb(16.896057%, 4.708862%, 18.218994%)" offset="0.878906"/><stop stop-opacity="1" stop-color="rgb(17.172241%, 4.708862%, 18.200684%)" offset="0.890625"/><stop stop-opacity="1" stop-color="rgb(17.448425%, 4.708862%, 18.182373%)" offset="0.902344"/><stop stop-opacity="1" stop-color="rgb(17.677307%, 4.708862%, 18.167114%)" offset="0.914062"/><stop stop-opacity="1" stop-color="rgb(17.861938%, 4.708862%, 18.154907%)" offset="0.921875"/><stop stop-opacity="1" stop-color="rgb(18.136597%, 4.708862%, 18.136597%)" offset="0.929688"/><stop stop-opacity="1" stop-color="rgb(18.458557%, 4.708862%, 18.115234%)" offset="0.945312"/><stop stop-opacity="1" stop-color="rgb(18.688965%, 4.708862%, 18.099976%)" offset="0.957031"/><stop stop-opacity="1" stop-color="rgb(18.965149%, 4.708862%, 18.081665%)" offset="0.964844"/><stop stop-opacity="1" stop-color="rgb(19.241333%, 4.708862%, 18.063354%)" offset="0.980469"/><stop stop-opacity="1" stop-color="rgb(19.470215%, 4.708862%, 18.048096%)" offset="0.988281"/><stop stop-opacity="1" stop-color="rgb(19.60907%, 4.708862%, 18.03894%)" offset="1"/></radialGradient><clipPath id="916d47a645"><path d="M 123.738281 269.449219 L 260.019531 269.449219 L 260.019531 369 L 123.738281 369 Z M 123.738281 269.449219 " clip-rule="nonzero"/></clipPath></defs><g clip-path="url(#60b69f73e9)"><path fill="#ffffff" d="M 0 0.539062 L 310 0.539062 L 310 671.460938 L 0 671.460938 Z M 0 0.539062 " fill-opacity="1" fill-rule="nonzero"/><path fill="url(#2fcf34a1c9)" d="M 0 0.539062 L 0 671.460938 L 310 671.460938 L 310 0.539062 Z M 0 0.539062 " fill-rule="nonzero"/></g><g clip-path="url(#916d47a645)"><path fill="#ffffff" d="M 247.933594 290.957031 L 223.925781 290.957031 L 215.535156 275.4375 C 215.066406 274.578125 214.496094 273.792969 213.816406 273.085938 C 213.140625 272.378906 212.382812 271.773438 211.539062 271.269531 C 210.699219 270.765625 209.808594 270.382812 208.863281 270.121094 C 207.921875 269.859375 206.960938 269.722656 205.980469 269.71875 L 178.109375 269.71875 C 177.113281 269.722656 176.136719 269.855469 175.175781 270.125 C 174.21875 270.394531 173.3125 270.789062 172.460938 271.304688 C 171.609375 271.824219 170.84375 272.445312 170.160156 273.171875 C 169.480469 273.898438 168.910156 274.703125 168.449219 275.589844 L 160.449219 290.957031 L 155.128906 290.957031 C 155.109375 290.511719 155.011719 290.089844 154.828125 289.6875 C 154.648438 289.28125 154.398438 288.929688 154.078125 288.621094 C 153.757812 288.316406 153.394531 288.078125 152.984375 287.914062 C 152.570312 287.75 152.144531 287.667969 151.703125 287.667969 L 149.859375 287.667969 C 149.707031 287.28125 149.457031 286.972656 149.113281 286.742188 C 148.769531 286.511719 148.390625 286.394531 147.976562 286.398438 L 142.96875 286.398438 C 142.554688 286.398438 142.175781 286.511719 141.832031 286.746094 C 141.488281 286.976562 141.238281 287.285156 141.085938 287.667969 L 139.296875 287.667969 C 138.855469 287.667969 138.429688 287.75 138.019531 287.914062 C 137.609375 288.078125 137.246094 288.316406 136.925781 288.621094 C 136.609375 288.929688 136.359375 289.285156 136.179688 289.6875 C 136 290.089844 135.898438 290.515625 135.882812 290.957031 C 135.082031 290.964844 134.292969 291.050781 133.507812 291.214844 C 132.722656 291.378906 131.964844 291.617188 131.226562 291.929688 C 130.488281 292.242188 129.789062 292.625 129.125 293.074219 C 128.464844 293.523438 127.851562 294.03125 127.285156 294.601562 C 126.722656 295.171875 126.222656 295.789062 125.777344 296.457031 C 125.335938 297.125 124.964844 297.828125 124.660156 298.570312 C 124.355469 299.308594 124.125 300.074219 123.96875 300.859375 C 123.816406 301.644531 123.738281 302.4375 123.738281 303.238281 L 123.738281 356.574219 C 123.738281 357.382812 123.816406 358.179688 123.972656 358.972656 C 124.132812 359.761719 124.363281 360.53125 124.671875 361.277344 C 124.980469 362.019531 125.359375 362.730469 125.808594 363.398438 C 126.257812 364.070312 126.765625 364.691406 127.335938 365.261719 C 127.90625 365.832031 128.527344 366.339844 129.195312 366.789062 C 129.867188 367.238281 130.574219 367.613281 131.320312 367.921875 C 132.066406 368.230469 132.832031 368.464844 133.625 368.621094 C 134.414062 368.78125 135.214844 368.859375 136.019531 368.859375 L 247.933594 368.859375 C 248.742188 368.859375 249.539062 368.78125 250.332031 368.621094 C 251.121094 368.464844 251.890625 368.230469 252.632812 367.921875 C 253.378906 367.613281 254.085938 367.238281 254.757812 366.789062 C 255.429688 366.339844 256.050781 365.832031 256.621094 365.261719 C 257.191406 364.691406 257.699219 364.070312 258.148438 363.398438 C 258.59375 362.730469 258.972656 362.019531 259.28125 361.277344 C 259.589844 360.53125 259.824219 359.761719 259.980469 358.972656 C 260.136719 358.179688 260.21875 357.382812 260.21875 356.574219 L 260.21875 303.171875 C 260.210938 302.367188 260.128906 301.570312 259.96875 300.785156 C 259.808594 299.996094 259.574219 299.230469 259.261719 298.492188 C 258.953125 297.75 258.574219 297.046875 258.125 296.378906 C 257.675781 295.710938 257.164062 295.097656 256.59375 294.53125 C 256.027344 293.960938 255.40625 293.457031 254.738281 293.011719 C 254.066406 292.566406 253.363281 292.191406 252.617188 291.882812 C 251.875 291.578125 251.109375 291.347656 250.320312 291.191406 C 249.535156 291.035156 248.738281 290.957031 247.933594 290.957031 Z M 191.976562 359.195312 C 190.882812 359.195312 189.792969 359.144531 188.707031 359.035156 C 187.617188 358.929688 186.539062 358.769531 185.464844 358.558594 C 184.394531 358.34375 183.335938 358.078125 182.289062 357.761719 C 181.242188 357.445312 180.214844 357.078125 179.207031 356.660156 C 178.195312 356.242188 177.207031 355.777344 176.246094 355.261719 C 175.28125 354.746094 174.34375 354.183594 173.433594 353.578125 C 172.527344 352.972656 171.648438 352.320312 170.804688 351.628906 C 169.957031 350.933594 169.148438 350.203125 168.375 349.429688 C 167.601562 348.65625 166.871094 347.847656 166.175781 347.003906 C 165.480469 346.160156 164.832031 345.28125 164.222656 344.375 C 163.617188 343.464844 163.054688 342.53125 162.539062 341.566406 C 162.023438 340.601562 161.558594 339.617188 161.136719 338.605469 C 160.71875 337.597656 160.351562 336.566406 160.035156 335.523438 C 159.714844 334.476562 159.449219 333.417969 159.238281 332.347656 C 159.023438 331.273438 158.863281 330.195312 158.757812 329.105469 C 158.648438 328.019531 158.59375 326.929688 158.59375 325.835938 C 158.59375 324.742188 158.648438 323.652344 158.753906 322.5625 C 158.859375 321.476562 159.019531 320.398438 159.234375 319.324219 C 159.445312 318.253906 159.710938 317.195312 160.027344 316.148438 C 160.347656 315.101562 160.714844 314.074219 161.132812 313.0625 C 161.550781 312.054688 162.015625 311.066406 162.53125 310.101562 C 163.046875 309.140625 163.605469 308.203125 164.214844 307.292969 C 164.820312 306.382812 165.472656 305.507812 166.164062 304.664062 C 166.859375 303.816406 167.589844 303.007812 168.363281 302.234375 C 169.136719 301.460938 169.945312 300.730469 170.789062 300.035156 C 171.632812 299.34375 172.511719 298.691406 173.417969 298.085938 C 174.328125 297.476562 175.265625 296.914062 176.226562 296.398438 C 177.191406 295.886719 178.179688 295.417969 179.1875 295 C 180.199219 294.582031 181.226562 294.214844 182.273438 293.894531 C 183.316406 293.578125 184.375 293.3125 185.449219 293.097656 C 186.519531 292.886719 187.601562 292.726562 188.6875 292.617188 C 189.777344 292.511719 190.867188 292.457031 191.960938 292.457031 C 193.050781 292.457031 194.140625 292.511719 195.230469 292.617188 C 196.316406 292.722656 197.398438 292.882812 198.46875 293.097656 C 199.542969 293.3125 200.601562 293.574219 201.648438 293.894531 C 202.691406 294.210938 203.71875 294.578125 204.730469 294.996094 C 205.742188 295.414062 206.726562 295.878906 207.691406 296.394531 C 208.65625 296.910156 209.589844 297.472656 210.5 298.078125 C 211.410156 298.6875 212.285156 299.335938 213.132812 300.03125 C 213.976562 300.722656 214.785156 301.457031 215.558594 302.230469 C 216.332031 303.003906 217.0625 303.8125 217.757812 304.65625 C 218.449219 305.5 219.101562 306.378906 219.707031 307.285156 C 220.316406 308.195312 220.875 309.132812 221.390625 310.09375 C 221.90625 311.058594 222.375 312.046875 222.792969 313.054688 C 223.210938 314.066406 223.578125 315.09375 223.894531 316.140625 C 224.214844 317.183594 224.476562 318.242188 224.691406 319.316406 C 224.90625 320.386719 225.066406 321.46875 225.171875 322.554688 C 225.28125 323.644531 225.332031 324.734375 225.332031 325.828125 C 225.332031 326.917969 225.28125 328.007812 225.171875 329.097656 C 225.066406 330.183594 224.90625 331.261719 224.691406 332.335938 C 224.480469 333.40625 224.214844 334.464844 223.898438 335.511719 C 223.578125 336.554688 223.210938 337.582031 222.792969 338.59375 C 222.375 339.601562 221.910156 340.589844 221.394531 341.554688 C 220.878906 342.515625 220.320312 343.453125 219.710938 344.359375 C 219.105469 345.269531 218.457031 346.144531 217.761719 346.992188 C 217.070312 347.835938 216.335938 348.644531 215.5625 349.417969 C 214.792969 350.191406 213.984375 350.921875 213.140625 351.617188 C 212.292969 352.308594 211.417969 352.960938 210.511719 353.566406 C 209.601562 354.175781 208.664062 354.734375 207.703125 355.25 C 206.738281 355.765625 205.753906 356.234375 204.742188 356.652344 C 203.734375 357.070312 202.707031 357.4375 201.660156 357.753906 C 200.617188 358.074219 199.558594 358.339844 198.484375 358.550781 C 197.414062 358.765625 196.335938 358.925781 195.246094 359.035156 C 194.160156 359.140625 193.070312 359.195312 191.976562 359.195312 Z M 247.578125 310.160156 C 247.214844 310.160156 246.851562 310.125 246.492188 310.054688 C 246.132812 309.984375 245.785156 309.878906 245.445312 309.738281 C 245.105469 309.601562 244.785156 309.429688 244.480469 309.226562 C 244.175781 309.023438 243.894531 308.792969 243.632812 308.535156 C 243.375 308.277344 243.144531 307.996094 242.941406 307.691406 C 242.734375 307.386719 242.5625 307.066406 242.421875 306.726562 C 242.28125 306.390625 242.175781 306.039062 242.105469 305.683594 C 242.035156 305.324219 241.996094 304.960938 241.996094 304.59375 C 241.996094 304.230469 242.03125 303.867188 242.101562 303.507812 C 242.175781 303.148438 242.28125 302.800781 242.421875 302.460938 C 242.558594 302.125 242.730469 301.800781 242.933594 301.496094 C 243.136719 301.191406 243.371094 300.910156 243.628906 300.652344 C 243.886719 300.394531 244.167969 300.164062 244.472656 299.960938 C 244.777344 299.757812 245.097656 299.585938 245.4375 299.445312 C 245.773438 299.304688 246.125 299.199219 246.484375 299.128906 C 246.839844 299.058594 247.203125 299.023438 247.570312 299.023438 C 247.9375 299.023438 248.296875 299.058594 248.65625 299.128906 C 249.015625 299.203125 249.363281 299.308594 249.703125 299.449219 C 250.039062 299.589844 250.363281 299.761719 250.664062 299.964844 C 250.96875 300.167969 251.25 300.398438 251.507812 300.660156 C 251.769531 300.917969 252 301.199219 252.199219 301.503906 C 252.402344 301.808594 252.574219 302.132812 252.714844 302.46875 C 252.855469 302.808594 252.957031 303.15625 253.027344 303.515625 C 253.101562 303.875 253.132812 304.238281 253.132812 304.605469 C 253.132812 304.96875 253.097656 305.328125 253.027344 305.6875 C 252.957031 306.046875 252.851562 306.390625 252.710938 306.730469 C 252.570312 307.066406 252.398438 307.386719 252.199219 307.691406 C 251.996094 307.992188 251.765625 308.273438 251.507812 308.53125 C 251.25 308.789062 250.96875 309.019531 250.664062 309.222656 C 250.363281 309.425781 250.042969 309.597656 249.703125 309.734375 C 249.367188 309.875 249.019531 309.980469 248.664062 310.050781 C 248.304688 310.121094 247.945312 310.160156 247.578125 310.160156 Z M 247.578125 310.160156 " fill-opacity="1" fill-rule="nonzero"/></g><path fill="#ffffff" d="M 215.234375 325.828125 C 215.234375 326.589844 215.195312 327.347656 215.121094 328.105469 C 215.046875 328.863281 214.933594 329.617188 214.785156 330.363281 C 214.636719 331.109375 214.453125 331.847656 214.230469 332.578125 C 214.011719 333.304688 213.753906 334.023438 213.464844 334.726562 C 213.171875 335.429688 212.847656 336.117188 212.488281 336.789062 C 212.128906 337.460938 211.738281 338.113281 211.3125 338.746094 C 210.890625 339.378906 210.4375 339.992188 209.953125 340.578125 C 209.472656 341.167969 208.960938 341.730469 208.421875 342.269531 C 207.882812 342.808594 207.320312 343.320312 206.730469 343.804688 C 206.140625 344.285156 205.53125 344.738281 204.898438 345.164062 C 204.265625 345.585938 203.613281 345.976562 202.941406 346.335938 C 202.269531 346.695312 201.582031 347.019531 200.878906 347.3125 C 200.171875 347.605469 199.457031 347.859375 198.726562 348.082031 C 198 348.300781 197.261719 348.488281 196.515625 348.636719 C 195.765625 348.785156 195.015625 348.894531 194.257812 348.96875 C 193.5 349.046875 192.738281 349.082031 191.976562 349.082031 C 191.214844 349.082031 190.457031 349.046875 189.699219 348.96875 C 188.941406 348.894531 188.1875 348.785156 187.441406 348.636719 C 186.691406 348.488281 185.957031 348.300781 185.226562 348.082031 C 184.496094 347.859375 183.78125 347.605469 183.078125 347.3125 C 182.375 347.019531 181.6875 346.695312 181.015625 346.335938 C 180.34375 345.976562 179.691406 345.585938 179.058594 345.164062 C 178.421875 344.738281 177.8125 344.285156 177.222656 343.804688 C 176.636719 343.320312 176.070312 342.808594 175.53125 342.269531 C 174.996094 341.730469 174.484375 341.167969 174 340.578125 C 173.515625 339.992188 173.0625 339.378906 172.640625 338.746094 C 172.21875 338.113281 171.828125 337.460938 171.46875 336.789062 C 171.109375 336.117188 170.78125 335.429688 170.492188 334.726562 C 170.199219 334.023438 169.945312 333.304688 169.722656 332.578125 C 169.5 331.847656 169.316406 331.109375 169.167969 330.363281 C 169.019531 329.617188 168.90625 328.863281 168.832031 328.105469 C 168.757812 327.347656 168.722656 326.589844 168.722656 325.828125 C 168.722656 325.066406 168.757812 324.304688 168.832031 323.546875 C 168.90625 322.789062 169.019531 322.035156 169.167969 321.289062 C 169.316406 320.542969 169.5 319.804688 169.722656 319.074219 C 169.945312 318.347656 170.199219 317.628906 170.492188 316.925781 C 170.78125 316.222656 171.109375 315.535156 171.46875 314.863281 C 171.828125 314.191406 172.21875 313.539062 172.640625 312.90625 C 173.0625 312.273438 173.515625 311.660156 174 311.074219 C 174.484375 310.484375 174.996094 309.921875 175.53125 309.382812 C 176.070312 308.84375 176.636719 308.332031 177.222656 307.847656 C 177.8125 307.367188 178.421875 306.914062 179.058594 306.488281 C 179.691406 306.066406 180.34375 305.675781 181.015625 305.316406 C 181.6875 304.957031 182.375 304.632812 183.078125 304.339844 C 183.78125 304.050781 184.496094 303.792969 185.226562 303.570312 C 185.957031 303.351562 186.691406 303.164062 187.441406 303.015625 C 188.1875 302.867188 188.941406 302.757812 189.699219 302.683594 C 190.457031 302.609375 191.214844 302.570312 191.976562 302.570312 C 192.738281 302.570312 193.5 302.609375 194.257812 302.683594 C 195.015625 302.757812 195.765625 302.867188 196.515625 303.015625 C 197.261719 303.164062 198 303.351562 198.726562 303.570312 C 199.457031 303.792969 200.171875 304.050781 200.878906 304.339844 C 201.582031 304.632812 202.269531 304.957031 202.941406 305.316406 C 203.613281 305.675781 204.265625 306.066406 204.898438 306.488281 C 205.53125 306.914062 206.140625 307.367188 206.730469 307.847656 C 207.320312 308.332031 207.882812 308.84375 208.421875 309.382812 C 208.960938 309.921875 209.472656 310.484375 209.953125 311.074219 C 210.4375 311.660156 210.890625 312.273438 211.3125 312.90625 C 211.738281 313.539062 212.128906 314.191406 212.488281 314.863281 C 212.847656 315.535156 213.171875 316.222656 213.464844 316.925781 C 213.753906 317.628906 214.011719 318.347656 214.230469 319.074219 C 214.453125 319.804688 214.636719 320.542969 214.785156 321.289062 C 214.933594 322.035156 215.046875 322.789062 215.121094 323.546875 C 215.195312 324.304688 215.234375 325.066406 215.234375 325.828125 Z M 215.234375 325.828125 " fill-opacity="1" fill-rule="nonzero"/><g fill="#ffffff" fill-opacity="1"><g transform="translate(61.281127, 308.179819)"><g><path d="M 7.875 0.140625 C 6.550781 0.140625 5.335938 -0.164062 4.234375 -0.78125 C 3.140625 -1.394531 2.269531 -2.25 1.625 -3.34375 C 0.976562 -4.4375 0.65625 -5.671875 0.65625 -7.046875 C 0.65625 -8.421875 0.976562 -9.648438 1.625 -10.734375 C 2.269531 -11.828125 3.140625 -12.679688 4.234375 -13.296875 C 5.335938 -13.910156 6.550781 -14.21875 7.875 -14.21875 C 9.1875 -14.21875 10.390625 -13.910156 11.484375 -13.296875 C 12.585938 -12.679688 13.453125 -11.828125 14.078125 -10.734375 C 14.710938 -9.648438 15.03125 -8.421875 15.03125 -7.046875 C 15.03125 -5.671875 14.710938 -4.4375 14.078125 -3.34375 C 13.441406 -2.25 12.578125 -1.394531 11.484375 -0.78125 C 10.390625 -0.164062 9.1875 0.140625 7.875 0.140625 Z M 7.875 -2.96875 C 8.988281 -2.96875 9.878906 -3.34375 10.546875 -4.09375 C 11.222656 -4.84375 11.5625 -5.828125 11.5625 -7.046875 C 11.5625 -8.285156 11.222656 -9.273438 10.546875 -10.015625 C 9.878906 -10.753906 8.988281 -11.125 7.875 -11.125 C 6.738281 -11.125 5.832031 -10.753906 5.15625 -10.015625 C 4.488281 -9.285156 4.15625 -8.296875 4.15625 -7.046875 C 4.15625 -5.804688 4.488281 -4.816406 5.15625 -4.078125 C 5.832031 -3.335938 6.738281 -2.96875 7.875 -2.96875 Z M 7.875 -2.96875 "/></g></g></g><g fill="#ffffff" fill-opacity="1"><g transform="translate(76.969665, 308.179819)"><g><path d="M 8.03125 -11.265625 C 9.332031 -11.265625 10.375 -10.835938 11.15625 -9.984375 C 11.9375 -9.140625 12.328125 -7.984375 12.328125 -6.515625 L 12.328125 0 L 8.921875 0 L 8.921875 -6.046875 C 8.921875 -6.796875 8.726562 -7.375 8.34375 -7.78125 C 7.957031 -8.195312 7.441406 -8.40625 6.796875 -8.40625 C 6.140625 -8.40625 5.617188 -8.195312 5.234375 -7.78125 C 4.847656 -7.375 4.65625 -6.796875 4.65625 -6.046875 L 4.65625 0 L 1.234375 0 L 1.234375 -11.140625 L 4.65625 -11.140625 L 4.65625 -9.671875 C 5 -10.160156 5.460938 -10.546875 6.046875 -10.828125 C 6.628906 -11.117188 7.289062 -11.265625 8.03125 -11.265625 Z M 8.03125 -11.265625 "/></g></g></g><g fill="#ffffff" fill-opacity="1"><g transform="translate(90.422687, 308.179819)"><g><path d="M 11.734375 -5.75 C 11.734375 -5.425781 11.71875 -5.09375 11.6875 -4.75 L 3.953125 -4.75 C 4.003906 -4.0625 4.226562 -3.53125 4.625 -3.15625 C 5.019531 -2.789062 5.503906 -2.609375 6.078125 -2.609375 C 6.921875 -2.609375 7.507812 -2.96875 7.84375 -3.6875 L 11.484375 -3.6875 C 11.296875 -2.957031 10.957031 -2.300781 10.46875 -1.71875 C 9.988281 -1.132812 9.378906 -0.675781 8.640625 -0.34375 C 7.910156 -0.0078125 7.09375 0.15625 6.1875 0.15625 C 5.09375 0.15625 4.117188 -0.0703125 3.265625 -0.53125 C 2.421875 -1 1.757812 -1.664062 1.28125 -2.53125 C 0.800781 -3.394531 0.5625 -4.410156 0.5625 -5.578125 C 0.5625 -6.734375 0.796875 -7.742188 1.265625 -8.609375 C 1.742188 -9.472656 2.40625 -10.132812 3.25 -10.59375 C 4.101562 -11.0625 5.082031 -11.296875 6.1875 -11.296875 C 7.269531 -11.296875 8.226562 -11.066406 9.0625 -10.609375 C 9.90625 -10.160156 10.5625 -9.515625 11.03125 -8.671875 C 11.5 -7.835938 11.734375 -6.863281 11.734375 -5.75 Z M 8.25 -6.65625 C 8.25 -7.238281 8.046875 -7.703125 7.640625 -8.046875 C 7.242188 -8.390625 6.75 -8.5625 6.15625 -8.5625 C 5.582031 -8.5625 5.097656 -8.394531 4.703125 -8.0625 C 4.304688 -7.726562 4.0625 -7.257812 3.96875 -6.65625 Z M 8.25 -6.65625 "/></g></g></g><g fill="#ffffff" fill-opacity="1"><g transform="translate(102.722205, 308.179819)"><g/></g></g><g fill="#ffffff" fill-opacity="1"><g transform="translate(58.672047, 335.885203)"><g><path d="M 6.3125 0.140625 C 5.28125 0.140625 4.359375 -0.0234375 3.546875 -0.359375 C 2.742188 -0.691406 2.097656 -1.179688 1.609375 -1.828125 C 1.117188 -2.484375 0.863281 -3.269531 0.84375 -4.1875 L 4.46875 -4.1875 C 4.519531 -3.675781 4.695312 -3.28125 5 -3 C 5.3125 -2.726562 5.710938 -2.59375 6.203125 -2.59375 C 6.710938 -2.59375 7.113281 -2.707031 7.40625 -2.9375 C 7.695312 -3.175781 7.84375 -3.5 7.84375 -3.90625 C 7.84375 -4.257812 7.726562 -4.546875 7.5 -4.765625 C 7.269531 -4.992188 6.984375 -5.179688 6.640625 -5.328125 C 6.296875 -5.472656 5.8125 -5.640625 5.1875 -5.828125 C 4.28125 -6.109375 3.539062 -6.390625 2.96875 -6.671875 C 2.394531 -6.953125 1.898438 -7.363281 1.484375 -7.90625 C 1.078125 -8.445312 0.875 -9.160156 0.875 -10.046875 C 0.875 -11.347656 1.347656 -12.367188 2.296875 -13.109375 C 3.242188 -13.847656 4.472656 -14.21875 5.984375 -14.21875 C 7.535156 -14.21875 8.78125 -13.847656 9.71875 -13.109375 C 10.664062 -12.367188 11.175781 -11.34375 11.25 -10.03125 L 7.546875 -10.03125 C 7.523438 -10.476562 7.359375 -10.832031 7.046875 -11.09375 C 6.742188 -11.351562 6.351562 -11.484375 5.875 -11.484375 C 5.457031 -11.484375 5.125 -11.375 4.875 -11.15625 C 4.625 -10.9375 4.5 -10.617188 4.5 -10.203125 C 4.5 -9.753906 4.707031 -9.398438 5.125 -9.140625 C 5.550781 -8.890625 6.21875 -8.617188 7.125 -8.328125 C 8.03125 -8.023438 8.765625 -7.734375 9.328125 -7.453125 C 9.898438 -7.171875 10.390625 -6.765625 10.796875 -6.234375 C 11.210938 -5.703125 11.421875 -5.015625 11.421875 -4.171875 C 11.421875 -3.367188 11.21875 -2.640625 10.8125 -1.984375 C 10.40625 -1.335938 9.816406 -0.820312 9.046875 -0.4375 C 8.273438 -0.0507812 7.363281 0.140625 6.3125 0.140625 Z M 6.3125 0.140625 "/></g></g></g><g fill="#ffffff" fill-opacity="1"><g transform="translate(70.947434, 335.885203)"><g><path d="M 7.453125 -2.890625 L 7.453125 0 L 5.71875 0 C 4.476562 0 3.507812 -0.300781 2.8125 -0.90625 C 2.125 -1.507812 1.78125 -2.5 1.78125 -3.875 L 1.78125 -8.3125 L 0.421875 -8.3125 L 0.421875 -11.140625 L 1.78125 -11.140625 L 1.78125 -13.859375 L 5.1875 -13.859375 L 5.1875 -11.140625 L 7.421875 -11.140625 L 7.421875 -8.3125 L 5.1875 -8.3125 L 5.1875 -3.828125 C 5.1875 -3.492188 5.265625 -3.253906 5.421875 -3.109375 C 5.585938 -2.960938 5.859375 -2.890625 6.234375 -2.890625 Z M 7.453125 -2.890625 "/></g></g></g><g fill="#ffffff" fill-opacity="1"><g transform="translate(79.051186, 335.885203)"><g><path d="M 6.3125 0.15625 C 5.21875 0.15625 4.234375 -0.0703125 3.359375 -0.53125 C 2.492188 -1 1.8125 -1.664062 1.3125 -2.53125 C 0.8125 -3.394531 0.5625 -4.410156 0.5625 -5.578125 C 0.5625 -6.710938 0.8125 -7.71875 1.3125 -8.59375 C 1.820312 -9.46875 2.515625 -10.132812 3.390625 -10.59375 C 4.273438 -11.0625 5.257812 -11.296875 6.34375 -11.296875 C 7.4375 -11.296875 8.421875 -11.0625 9.296875 -10.59375 C 10.179688 -10.132812 10.875 -9.46875 11.375 -8.59375 C 11.882812 -7.71875 12.140625 -6.710938 12.140625 -5.578125 C 12.140625 -4.429688 11.882812 -3.421875 11.375 -2.546875 C 10.863281 -1.671875 10.164062 -1 9.28125 -0.53125 C 8.394531 -0.0703125 7.40625 0.15625 6.3125 0.15625 Z M 6.3125 -2.796875 C 6.957031 -2.796875 7.507812 -3.035156 7.96875 -3.515625 C 8.4375 -3.992188 8.671875 -4.679688 8.671875 -5.578125 C 8.671875 -6.460938 8.445312 -7.144531 8 -7.625 C 7.550781 -8.101562 7 -8.34375 6.34375 -8.34375 C 5.6875 -8.34375 5.132812 -8.101562 4.6875 -7.625 C 4.25 -7.15625 4.03125 -6.472656 4.03125 -5.578125 C 4.03125 -4.679688 4.242188 -3.992188 4.671875 -3.515625 C 5.109375 -3.035156 5.65625 -2.796875 6.3125 -2.796875 Z M 6.3125 -2.796875 "/></g></g></g><g fill="#ffffff" fill-opacity="1"><g transform="translate(91.765685, 335.885203)"><g><path d="M 4.65625 -9.5625 C 4.988281 -10.082031 5.445312 -10.5 6.03125 -10.8125 C 6.613281 -11.132812 7.300781 -11.296875 8.09375 -11.296875 C 9.007812 -11.296875 9.835938 -11.0625 10.578125 -10.59375 C 11.328125 -10.132812 11.914062 -9.472656 12.34375 -8.609375 C 12.78125 -7.742188 13 -6.738281 13 -5.59375 C 13 -4.445312 12.78125 -3.4375 12.34375 -2.5625 C 11.914062 -1.695312 11.328125 -1.023438 10.578125 -0.546875 C 9.835938 -0.078125 9.007812 0.15625 8.09375 0.15625 C 7.3125 0.15625 6.625 0 6.03125 -0.3125 C 5.445312 -0.632812 4.988281 -1.050781 4.65625 -1.5625 L 4.65625 5.3125 L 1.234375 5.3125 L 1.234375 -11.140625 L 4.65625 -11.140625 Z M 9.53125 -5.59375 C 9.53125 -6.445312 9.289062 -7.113281 8.8125 -7.59375 C 8.34375 -8.082031 7.757812 -8.328125 7.0625 -8.328125 C 6.382812 -8.328125 5.804688 -8.078125 5.328125 -7.578125 C 4.859375 -7.085938 4.625 -6.421875 4.625 -5.578125 C 4.625 -4.722656 4.859375 -4.046875 5.328125 -3.546875 C 5.804688 -3.054688 6.382812 -2.8125 7.0625 -2.8125 C 7.75 -2.8125 8.332031 -3.0625 8.8125 -3.5625 C 9.289062 -4.0625 9.53125 -4.738281 9.53125 -5.59375 Z M 9.53125 -5.59375 "/></g></g></g><g fill="#ffffff" fill-opacity="1"><g transform="translate(105.319584, 335.885203)"><g/></g></g><g fill="#ffffff" fill-opacity="1"><g transform="translate(54.307981, 363.590588)"><g><path d="M 4.65625 -11.28125 L 4.65625 -8.453125 L 9.21875 -8.453125 L 9.21875 -5.8125 L 4.65625 -5.8125 L 4.65625 -2.734375 L 9.828125 -2.734375 L 9.828125 0 L 1.234375 0 L 1.234375 -14.015625 L 9.828125 -14.015625 L 9.828125 -11.28125 Z M 4.65625 -11.28125 "/></g></g></g><g fill="#ffffff" fill-opacity="1"><g transform="translate(65.106323, 363.590588)"><g><path d="M 0.5625 -5.59375 C 0.5625 -6.738281 0.773438 -7.742188 1.203125 -8.609375 C 1.640625 -9.472656 2.226562 -10.132812 2.96875 -10.59375 C 3.71875 -11.0625 4.550781 -11.296875 5.46875 -11.296875 C 6.195312 -11.296875 6.863281 -11.144531 7.46875 -10.84375 C 8.082031 -10.539062 8.5625 -10.128906 8.90625 -9.609375 L 8.90625 -14.78125 L 12.328125 -14.78125 L 12.328125 0 L 8.90625 0 L 8.90625 -1.59375 C 8.582031 -1.0625 8.125 -0.632812 7.53125 -0.3125 C 6.945312 0 6.257812 0.15625 5.46875 0.15625 C 4.550781 0.15625 3.71875 -0.078125 2.96875 -0.546875 C 2.226562 -1.023438 1.640625 -1.695312 1.203125 -2.5625 C 0.773438 -3.4375 0.5625 -4.445312 0.5625 -5.59375 Z M 8.90625 -5.578125 C 8.90625 -6.421875 8.664062 -7.085938 8.1875 -7.578125 C 7.71875 -8.078125 7.144531 -8.328125 6.46875 -8.328125 C 5.789062 -8.328125 5.210938 -8.082031 4.734375 -7.59375 C 4.265625 -7.113281 4.03125 -6.445312 4.03125 -5.59375 C 4.03125 -4.738281 4.265625 -4.0625 4.734375 -3.5625 C 5.210938 -3.0625 5.789062 -2.8125 6.46875 -2.8125 C 7.144531 -2.8125 7.71875 -3.054688 8.1875 -3.546875 C 8.664062 -4.046875 8.90625 -4.722656 8.90625 -5.578125 Z M 8.90625 -5.578125 "/></g></g></g><g fill="#ffffff" fill-opacity="1"><g transform="translate(78.659148, 363.590588)"><g><path d="M 2.953125 -12.296875 C 2.359375 -12.296875 1.867188 -12.472656 1.484375 -12.828125 C 1.109375 -13.179688 0.921875 -13.617188 0.921875 -14.140625 C 0.921875 -14.671875 1.109375 -15.113281 1.484375 -15.46875 C 1.867188 -15.820312 2.359375 -16 2.953125 -16 C 3.535156 -16 4.015625 -15.820312 4.390625 -15.46875 C 4.773438 -15.113281 4.96875 -14.671875 4.96875 -14.140625 C 4.96875 -13.617188 4.773438 -13.179688 4.390625 -12.828125 C 4.015625 -12.472656 3.535156 -12.296875 2.953125 -12.296875 Z M 4.65625 -11.140625 L 4.65625 0 L 1.234375 0 L 1.234375 -11.140625 Z M 4.65625 -11.140625 "/></g></g></g><g fill="#ffffff" fill-opacity="1"><g transform="translate(84.547344, 363.590588)"><g><path d="M 7.453125 -2.890625 L 7.453125 0 L 5.71875 0 C 4.476562 0 3.507812 -0.300781 2.8125 -0.90625 C 2.125 -1.507812 1.78125 -2.5 1.78125 -3.875 L 1.78125 -8.3125 L 0.421875 -8.3125 L 0.421875 -11.140625 L 1.78125 -11.140625 L 1.78125 -13.859375 L 5.1875 -13.859375 L 5.1875 -11.140625 L 7.421875 -11.140625 L 7.421875 -8.3125 L 5.1875 -8.3125 L 5.1875 -3.828125 C 5.1875 -3.492188 5.265625 -3.253906 5.421875 -3.109375 C 5.585938 -2.960938 5.859375 -2.890625 6.234375 -2.890625 Z M 7.453125 -2.890625 "/></g></g></g><g fill="#ffffff" fill-opacity="1"><g transform="translate(92.651096, 363.590588)"><g><path d="M 6.3125 0.15625 C 5.21875 0.15625 4.234375 -0.0703125 3.359375 -0.53125 C 2.492188 -1 1.8125 -1.664062 1.3125 -2.53125 C 0.8125 -3.394531 0.5625 -4.410156 0.5625 -5.578125 C 0.5625 -6.710938 0.8125 -7.71875 1.3125 -8.59375 C 1.820312 -9.46875 2.515625 -10.132812 3.390625 -10.59375 C 4.273438 -11.0625 5.257812 -11.296875 6.34375 -11.296875 C 7.4375 -11.296875 8.421875 -11.0625 9.296875 -10.59375 C 10.179688 -10.132812 10.875 -9.46875 11.375 -8.59375 C 11.882812 -7.71875 12.140625 -6.710938 12.140625 -5.578125 C 12.140625 -4.429688 11.882812 -3.421875 11.375 -2.546875 C 10.863281 -1.671875 10.164062 -1 9.28125 -0.53125 C 8.394531 -0.0703125 7.40625 0.15625 6.3125 0.15625 Z M 6.3125 -2.796875 C 6.957031 -2.796875 7.507812 -3.035156 7.96875 -3.515625 C 8.4375 -3.992188 8.671875 -4.679688 8.671875 -5.578125 C 8.671875 -6.460938 8.445312 -7.144531 8 -7.625 C 7.550781 -8.101562 7 -8.34375 6.34375 -8.34375 C 5.6875 -8.34375 5.132812 -8.101562 4.6875 -7.625 C 4.25 -7.15625 4.03125 -6.472656 4.03125 -5.578125 C 4.03125 -4.679688 4.242188 -3.992188 4.671875 -3.515625 C 5.109375 -3.035156 5.65625 -2.796875 6.3125 -2.796875 Z M 6.3125 -2.796875 "/></g></g></g><g fill="#ffffff" fill-opacity="1"><g transform="translate(105.365595, 363.590588)"><g><path d="M 4.65625 -9.28125 C 5.050781 -9.894531 5.546875 -10.378906 6.140625 -10.734375 C 6.742188 -11.085938 7.410156 -11.265625 8.140625 -11.265625 L 8.140625 -7.640625 L 7.203125 -7.640625 C 6.359375 -7.640625 5.722656 -7.457031 5.296875 -7.09375 C 4.867188 -6.726562 4.65625 -6.085938 4.65625 -5.171875 L 4.65625 0 L 1.234375 0 L 1.234375 -11.140625 L 4.65625 -11.140625 Z M 4.65625 -9.28125 "/></g></g></g><g fill="#ffffff" fill-opacity="1"><g transform="translate(47.622773, 379.115576)"><g><path d="M 3.140625 -7.625 L 2.546875 -4.640625 L 6.890625 -4.640625 L 6.75 -3.890625 L 2.390625 -3.890625 L 1.78125 -0.765625 L 6.8125 -0.765625 L 6.65625 0 L 0.75 0 L 2.421875 -8.390625 L 8.171875 -8.390625 L 8.015625 -7.625 Z M 3.140625 -7.625 "/></g></g></g><g fill="#ffffff" fill-opacity="1"><g transform="translate(55.542035, 379.115576)"><g><path d="M 8.09375 -8.890625 L 6.3125 0 L 5.5 0 L 5.703125 -1 C 5.398438 -0.65625 5.039062 -0.390625 4.625 -0.203125 C 4.207031 -0.0234375 3.75 0.0625 3.25 0.0625 C 2.707031 0.0625 2.226562 -0.046875 1.8125 -0.265625 C 1.40625 -0.484375 1.082031 -0.789062 0.84375 -1.1875 C 0.613281 -1.59375 0.5 -2.066406 0.5 -2.609375 C 0.5 -3.316406 0.648438 -3.953125 0.953125 -4.515625 C 1.265625 -5.085938 1.691406 -5.535156 2.234375 -5.859375 C 2.785156 -6.191406 3.394531 -6.359375 4.0625 -6.359375 C 4.65625 -6.359375 5.15625 -6.238281 5.5625 -6 C 5.976562 -5.757812 6.273438 -5.421875 6.453125 -4.984375 L 7.234375 -8.890625 Z M 3.421875 -0.6875 C 3.941406 -0.6875 4.410156 -0.8125 4.828125 -1.0625 C 5.242188 -1.320312 5.566406 -1.675781 5.796875 -2.125 C 6.035156 -2.570312 6.15625 -3.078125 6.15625 -3.640625 C 6.15625 -4.253906 5.972656 -4.734375 5.609375 -5.078125 C 5.242188 -5.429688 4.738281 -5.609375 4.09375 -5.609375 C 3.570312 -5.609375 3.101562 -5.476562 2.6875 -5.21875 C 2.269531 -4.96875 1.941406 -4.613281 1.703125 -4.15625 C 1.472656 -3.707031 1.359375 -3.207031 1.359375 -2.65625 C 1.359375 -2.03125 1.535156 -1.546875 1.890625 -1.203125 C 2.253906 -0.859375 2.765625 -0.6875 3.421875 -0.6875 Z M 3.421875 -0.6875 "/></g></g></g><g fill="#ffffff" fill-opacity="1"><g transform="translate(63.664971, 379.115576)"><g><path d="M 1.8125 -6.296875 L 2.65625 -6.296875 L 1.421875 0 L 0.5625 0 Z M 2.609375 -7.6875 C 2.441406 -7.6875 2.300781 -7.738281 2.1875 -7.84375 C 2.082031 -7.957031 2.03125 -8.09375 2.03125 -8.25 C 2.03125 -8.425781 2.09375 -8.578125 2.21875 -8.703125 C 2.34375 -8.828125 2.5 -8.890625 2.6875 -8.890625 C 2.851562 -8.890625 2.992188 -8.832031 3.109375 -8.71875 C 3.222656 -8.613281 3.28125 -8.492188 3.28125 -8.359375 C 3.28125 -8.160156 3.210938 -8 3.078125 -7.875 C 2.953125 -7.75 2.796875 -7.6875 2.609375 -7.6875 Z M 2.609375 -7.6875 "/></g></g></g><g fill="#ffffff" fill-opacity="1"><g transform="translate(66.887793, 379.115576)"><g><path d="M 1.921875 -1.90625 C 1.890625 -1.71875 1.875 -1.585938 1.875 -1.515625 C 1.875 -0.953125 2.179688 -0.671875 2.796875 -0.671875 C 3.148438 -0.671875 3.472656 -0.78125 3.765625 -1 L 3.96875 -0.34375 C 3.601562 -0.0703125 3.132812 0.0625 2.5625 0.0625 C 2.09375 0.0625 1.71875 -0.0625 1.4375 -0.3125 C 1.164062 -0.570312 1.03125 -0.925781 1.03125 -1.375 C 1.03125 -1.550781 1.046875 -1.71875 1.078125 -1.875 L 1.8125 -5.578125 L 0.6875 -5.578125 L 0.828125 -6.296875 L 1.953125 -6.296875 L 2.234375 -7.6875 L 3.078125 -7.6875 L 2.796875 -6.296875 L 4.71875 -6.296875 L 4.578125 -5.578125 L 2.65625 -5.578125 Z M 1.921875 -1.90625 "/></g></g></g><g fill="#ffffff" fill-opacity="1"><g transform="translate(71.871783, 379.115576)"><g><path d="M 0.75 0.0625 C 0.570312 0.0625 0.421875 0.00390625 0.296875 -0.109375 C 0.179688 -0.234375 0.125 -0.382812 0.125 -0.5625 C 0.125 -0.75 0.1875 -0.910156 0.3125 -1.046875 C 0.445312 -1.179688 0.609375 -1.25 0.796875 -1.25 C 0.960938 -1.25 1.101562 -1.1875 1.21875 -1.0625 C 1.34375 -0.945312 1.40625 -0.800781 1.40625 -0.625 C 1.40625 -0.425781 1.335938 -0.257812 1.203125 -0.125 C 1.066406 0 0.914062 0.0625 0.75 0.0625 Z M 0.75 0.0625 "/></g></g></g><g fill="#ffffff" fill-opacity="1"><g transform="translate(74.411703, 379.115576)"><g/></g></g><g fill="#ffffff" fill-opacity="1"><g transform="translate(77.550649, 379.115576)"><g><path d="M 4.6875 0.078125 C 3.875 0.078125 3.171875 -0.0664062 2.578125 -0.359375 C 1.984375 -0.648438 1.53125 -1.054688 1.21875 -1.578125 C 0.914062 -2.109375 0.765625 -2.722656 0.765625 -3.421875 C 0.765625 -4.347656 0.972656 -5.191406 1.390625 -5.953125 C 1.816406 -6.722656 2.414062 -7.332031 3.1875 -7.78125 C 3.957031 -8.238281 4.851562 -8.46875 5.875 -8.46875 C 6.539062 -8.46875 7.132812 -8.359375 7.65625 -8.140625 C 8.175781 -7.929688 8.578125 -7.628906 8.859375 -7.234375 L 8.234375 -6.6875 C 7.703125 -7.34375 6.890625 -7.671875 5.796875 -7.671875 C 4.972656 -7.671875 4.242188 -7.476562 3.609375 -7.09375 C 2.984375 -6.71875 2.5 -6.207031 2.15625 -5.5625 C 1.8125 -4.925781 1.640625 -4.226562 1.640625 -3.46875 C 1.640625 -2.625 1.910156 -1.953125 2.453125 -1.453125 C 2.992188 -0.960938 3.757812 -0.71875 4.75 -0.71875 C 5.851562 -0.71875 6.742188 -1.050781 7.421875 -1.71875 L 7.9375 -1.125 C 7.5625 -0.738281 7.09375 -0.441406 6.53125 -0.234375 C 5.96875 -0.0234375 5.351562 0.078125 4.6875 0.078125 Z M 4.6875 0.078125 "/></g></g></g><g fill="#ffffff" fill-opacity="1"><g transform="translate(86.164799, 379.115576)"><g><path d="M 2.40625 -5.15625 C 2.6875 -5.5625 3.035156 -5.863281 3.453125 -6.0625 C 3.878906 -6.257812 4.394531 -6.359375 5 -6.359375 L 4.84375 -5.53125 L 4.609375 -5.53125 C 3.921875 -5.53125 3.359375 -5.332031 2.921875 -4.9375 C 2.492188 -4.550781 2.203125 -3.972656 2.046875 -3.203125 L 1.421875 0 L 0.5625 0 L 1.8125 -6.296875 L 2.625 -6.296875 Z M 2.40625 -5.15625 "/></g></g></g><g fill="#ffffff" fill-opacity="1"><g transform="translate(90.81333, 379.115576)"><g><path d="M 1.359375 -2.90625 C 1.347656 -2.851562 1.34375 -2.769531 1.34375 -2.65625 C 1.34375 -2.019531 1.523438 -1.53125 1.890625 -1.1875 C 2.253906 -0.851562 2.796875 -0.6875 3.515625 -0.6875 C 3.929688 -0.6875 4.316406 -0.753906 4.671875 -0.890625 C 5.035156 -1.035156 5.335938 -1.234375 5.578125 -1.484375 L 5.953125 -0.875 C 5.660156 -0.582031 5.289062 -0.351562 4.84375 -0.1875 C 4.40625 -0.0195312 3.9375 0.0625 3.4375 0.0625 C 2.53125 0.0625 1.8125 -0.175781 1.28125 -0.65625 C 0.757812 -1.132812 0.5 -1.789062 0.5 -2.625 C 0.5 -3.320312 0.648438 -3.953125 0.953125 -4.515625 C 1.253906 -5.085938 1.671875 -5.535156 2.203125 -5.859375 C 2.734375 -6.191406 3.328125 -6.359375 3.984375 -6.359375 C 4.828125 -6.359375 5.492188 -6.117188 5.984375 -5.640625 C 6.484375 -5.160156 6.734375 -4.503906 6.734375 -3.671875 C 6.734375 -3.441406 6.707031 -3.1875 6.65625 -2.90625 Z M 3.96875 -5.625 C 3.332031 -5.625 2.789062 -5.4375 2.34375 -5.0625 C 1.894531 -4.6875 1.59375 -4.179688 1.4375 -3.546875 L 5.9375 -3.546875 C 5.9375 -3.597656 5.9375 -3.675781 5.9375 -3.78125 C 5.9375 -4.363281 5.753906 -4.816406 5.390625 -5.140625 C 5.035156 -5.460938 4.5625 -5.625 3.96875 -5.625 Z M 3.96875 -5.625 "/></g></g></g><g fill="#ffffff" fill-opacity="1"><g transform="translate(98.04969, 379.115576)"><g><path d="M 7.578125 -6.296875 L 6.3125 0 L 5.5 0 L 5.703125 -1 C 5.398438 -0.65625 5.039062 -0.390625 4.625 -0.203125 C 4.207031 -0.0234375 3.75 0.0625 3.25 0.0625 C 2.707031 0.0625 2.226562 -0.046875 1.8125 -0.265625 C 1.40625 -0.484375 1.082031 -0.789062 0.84375 -1.1875 C 0.613281 -1.59375 0.5 -2.066406 0.5 -2.609375 C 0.5 -3.316406 0.648438 -3.953125 0.953125 -4.515625 C 1.265625 -5.085938 1.691406 -5.535156 2.234375 -5.859375 C 2.785156 -6.191406 3.394531 -6.359375 4.0625 -6.359375 C 4.664062 -6.359375 5.171875 -6.238281 5.578125 -6 C 5.984375 -5.757812 6.273438 -5.421875 6.453125 -4.984375 L 6.71875 -6.296875 Z M 3.421875 -0.6875 C 3.941406 -0.6875 4.410156 -0.8125 4.828125 -1.0625 C 5.242188 -1.320312 5.566406 -1.675781 5.796875 -2.125 C 6.035156 -2.570312 6.15625 -3.078125 6.15625 -3.640625 C 6.15625 -4.253906 5.972656 -4.734375 5.609375 -5.078125 C 5.242188 -5.429688 4.738281 -5.609375 4.09375 -5.609375 C 3.570312 -5.609375 3.101562 -5.476562 2.6875 -5.21875 C 2.269531 -4.96875 1.941406 -4.613281 1.703125 -4.15625 C 1.472656 -3.707031 1.359375 -3.207031 1.359375 -2.65625 C 1.359375 -2.03125 1.535156 -1.546875 1.890625 -1.203125 C 2.253906 -0.859375 2.765625 -0.6875 3.421875 -0.6875 Z M 3.421875 -0.6875 "/></g></g></g><g fill="#ffffff" fill-opacity="1"><g transform="translate(106.172626, 379.115576)"><g><path d="M 1.921875 -1.90625 C 1.890625 -1.71875 1.875 -1.585938 1.875 -1.515625 C 1.875 -0.953125 2.179688 -0.671875 2.796875 -0.671875 C 3.148438 -0.671875 3.472656 -0.78125 3.765625 -1 L 3.96875 -0.34375 C 3.601562 -0.0703125 3.132812 0.0625 2.5625 0.0625 C 2.09375 0.0625 1.71875 -0.0625 1.4375 -0.3125 C 1.164062 -0.570312 1.03125 -0.925781 1.03125 -1.375 C 1.03125 -1.550781 1.046875 -1.71875 1.078125 -1.875 L 1.8125 -5.578125 L 0.6875 -5.578125 L 0.828125 -6.296875 L 1.953125 -6.296875 L 2.234375 -7.6875 L 3.078125 -7.6875 L 2.796875 -6.296875 L 4.71875 -6.296875 L 4.578125 -5.578125 L 2.65625 -5.578125 Z M 1.921875 -1.90625 "/></g></g></g><g fill="#ffffff" fill-opacity="1"><g transform="translate(110.809172, 379.115576)"><g><path d="M 1.359375 -2.90625 C 1.347656 -2.851562 1.34375 -2.769531 1.34375 -2.65625 C 1.34375 -2.019531 1.523438 -1.53125 1.890625 -1.1875 C 2.253906 -0.851562 2.796875 -0.6875 3.515625 -0.6875 C 3.929688 -0.6875 4.316406 -0.753906 4.671875 -0.890625 C 5.035156 -1.035156 5.335938 -1.234375 5.578125 -1.484375 L 5.953125 -0.875 C 5.660156 -0.582031 5.289062 -0.351562 4.84375 -0.1875 C 4.40625 -0.0195312 3.9375 0.0625 3.4375 0.0625 C 2.53125 0.0625 1.8125 -0.175781 1.28125 -0.65625 C 0.757812 -1.132812 0.5 -1.789062 0.5 -2.625 C 0.5 -3.320312 0.648438 -3.953125 0.953125 -4.515625 C 1.253906 -5.085938 1.671875 -5.535156 2.203125 -5.859375 C 2.734375 -6.191406 3.328125 -6.359375 3.984375 -6.359375 C 4.828125 -6.359375 5.492188 -6.117188 5.984375 -5.640625 C 6.484375 -5.160156 6.734375 -4.503906 6.734375 -3.671875 C 6.734375 -3.441406 6.707031 -3.1875 6.65625 -2.90625 Z M 3.96875 -5.625 C 3.332031 -5.625 2.789062 -5.4375 2.34375 -5.0625 C 1.894531 -4.6875 1.59375 -4.179688 1.4375 -3.546875 L 5.9375 -3.546875 C 5.9375 -3.597656 5.9375 -3.675781 5.9375 -3.78125 C 5.9375 -4.363281 5.753906 -4.816406 5.390625 -5.140625 C 5.035156 -5.460938 4.5625 -5.625 3.96875 -5.625 Z M 3.96875 -5.625 "/></g></g></g><g fill="#ffffff" fill-opacity="1"><g transform="translate(118.045531, 379.115576)"><g><path d="M 0.75 0.0625 C 0.570312 0.0625 0.421875 0.00390625 0.296875 -0.109375 C 0.179688 -0.234375 0.125 -0.382812 0.125 -0.5625 C 0.125 -0.75 0.1875 -0.910156 0.3125 -1.046875 C 0.445312 -1.179688 0.609375 -1.25 0.796875 -1.25 C 0.960938 -1.25 1.101562 -1.1875 1.21875 -1.0625 C 1.34375 -0.945312 1.40625 -0.800781 1.40625 -0.625 C 1.40625 -0.425781 1.335938 -0.257812 1.203125 -0.125 C 1.066406 0 0.914062 0.0625 0.75 0.0625 Z M 0.75 0.0625 "/></g></g></g><g fill="#ffffff" fill-opacity="1"><g transform="translate(120.595106, 379.115576)"><g/></g></g></svg>